<svg height="512pt" viewBox="0 -61 512 511" width="512pt" xmlns="http://www.w3.org/2000/svg"><path d="m56.683594 258.269531c-8.4375 0-16.9375-1.910156-24.902344-5.796875-19.601562-9.5625-31.78125-29.054687-31.78125-50.867187v-64.097657h30v64.097657c0 10.402343 5.585938 19.339843 14.9375 23.902343s19.832031 3.464844 28.03125-2.941406l18.464844 23.648438c-10.207032 7.96875-22.414063 12.054687-34.75 12.054687zm0 0" fill="#ffe9cc"/><path d="m512 135.367188-55.863281-134.867188-227.183594 67.179688-36.941406 112.058593 36.941406 92.867188 84.035156-29.066407zm0 0" fill="#07485e"/><path d="m142.007812 110.246094-19.71875-9.6875c-22.445312 10.59375-40.804687 28.691406-51.625 51.367187-13.222656 27.699219-14.066406 59.847657-2.320312 88.207031 12.1875 29.417969 36.5625 51.910157 66.878906 61.699219l4.773438 1.542969 88.957031-30.769531v-204.925781l-78.230469 23.152343zm0 0" fill="#07485e"/><path d="m150.722656 90.832031-14.453125 4.277344c-4.808593 1.5-9.472656 3.332031-13.976562 5.457031l74.523437 183.152344 28.390625-9.820312zm0 0" fill="#e1ebf0"/><path d="m228.953125 179.738281-20.019531 105.027344 20.019531 105.03125c57.914063 0 105.027344-47.117187 105.027344-105.03125s-47.113281-105.027344-105.027344-105.027344zm0 0" fill="#87a0af"/><path d="m123.921875 284.765625c0 57.914063 47.113281 105.03125 105.03125 105.03125v-210.058594c-57.917969 0-105.03125 47.113281-105.03125 105.027344zm0 0" fill="#b4d2d7"/><path d="m228.953125 239.738281-20.019531 45.027344 20.019531 45.027344c24.824219 0 45.023437-20.199219 45.023437-45.027344s-20.195312-45.027344-45.023437-45.027344zm0 0" fill="#e1ebf0"/><path d="m183.925781 284.765625c0 24.828125 20.199219 45.027344 45.027344 45.027344v-90.054688c-24.828125 0-45.027344 20.199219-45.027344 45.027344zm0 0" fill="#fff5f5"/></svg>